# xmcd
#
# Track frame offsets: 
#        183
#        19383
#        45163
#        69188
#        91365
#        112513
#        129813
#        148038
#        167588
#
# Disc length: 2500 seconds
#
# Revision: 0
# Processed by: cddbd v1.5.1PL0 Copyright (c) Steve Scherf et al.
# Submitted via: ExactAudioCopy v0.95a5
#
DISCID=6209c209
DTITLE=Robert Calvert - At The Queen Elizabeth Hall
DYEAR=1989
DGENRE=Blues
TTITLE0=Evil Rock
TTITLE1=Medley
TTITLE2=Test Tube Conceived
TTITLE3=Working Down A Diamond Mine
TTITLE4=All The Machines Are Quiet
TTITLE5=Work Song
TTITLE6=Telekinesis
TTITLE7=Acid Rain
TTITLE8=Lord Of The Hornets
EXTD=
EXTT0=
EXTT1=
EXTT2=
EXTT3=
EXTT4=
EXTT5=
EXTT6=
EXTT7=
EXTT8=
PLAYORDER=
